# xmcd
#
# Track frame offsets:
#	150
#	18135
#	37844
#	55800
#	74452
#	94874
#	112858
#	134739
#	153616
#	169577
#	187284
#	209048
#	227240
#	244306
#	272931
#
# Disc length: 4337 seconds
#
# Revision: 0
# Processed by: cddbd v1.4PL0 Copyright (c) Steve Scherf et al.
# Submitted via: dBpowerAMP V4.0
#
DISCID=de10ef0f
DTITLE=Vanessa Carlton - Be Not Nobody (Tour Edition)
DYEAR=1900
DGENRE=
TTITLE0=Ordinary Day
TTITLE1=Unsung
TTITLE2=A Thousand Miles
TTITLE3=Pretty Baby
TTITLE4=Rinse
TTITLE5=Sway
TTITLE6=Paradise
TTITLE7=Prince
TTITLE8=Paint It Black
TTITLE9=Wanted
TTITLE10=Twilight
TTITLE11=A Thousand Miles (Piano And Vocal - Live In Tokyo)
TTITLE12=Ordinary Day (Piano And Vocal - Live In Holland)
TTITLE13=Paradise (Piano And Vocal)
TTITLE14=DATA
EXTD=
EXTT0=
EXTT1=
EXTT2=
EXTT3=
EXTT4=
EXTT5=
EXTT6=
EXTT7=
EXTT8=
EXTT9=
EXTT10=
EXTT11=
EXTT12=
EXTT13=
EXTT14=
PLAYORDER=
